<svg width="40" height="48" viewBox="0 0 40 48" fill="none" xmlns="http://www.w3.org/2000/svg">
<path d="M30.4957 41.4261C28.9162 41.4261 27.5412 41.0284 26.3707 40.233C25.2116 39.4375 24.331 38.267 23.7287 36.7216L19.2969 24.0568L16.4332 16.8977L15.4446 14.4432C15.0582 13.4773 14.6548 12.767 14.2344 12.3125C13.8253 11.8466 13.3082 11.5909 12.6832 11.5455C12.0696 11.5 11.2514 11.625 10.2287 11.9205L8.59233 6.29545C9.18324 6.07954 9.79119 5.91477 10.4162 5.80114C11.0526 5.67614 11.7344 5.61364 12.4616 5.61364C14.6321 5.61364 16.5014 6.15909 18.0696 7.25C19.6378 8.34091 20.8139 9.92045 21.598 11.9886L29.5923 33.0227C29.9673 34.0227 30.3082 34.733 30.6151 35.1534C30.9219 35.5739 31.3878 35.7841 32.0128 35.7841C32.1378 35.7841 32.2685 35.7784 32.4048 35.767C32.5412 35.7443 32.6548 35.7273 32.7457 35.7159L33.3935 41.0511C33.0639 41.1648 32.6207 41.2557 32.0639 41.3239C31.5185 41.4034 30.9957 41.4375 30.4957 41.4261ZM6.61506 41L16.9957 13.4886L21.5469 25.4205H19.4332L14.081 41H6.61506Z" fill="black"/>
</svg>
